<mxfile host="app.diagrams.net" modified="2024-04-29T01:13:21.123Z" agent="Mozilla/5.0 (Windows NT 10.0; Win64; x64) AppleWebKit/537.36 (KHTML, like Gecko) Chrome/124.0.0.0 Safari/537.36" etag="fayK48mro2Gf00d4-8M7" version="23.1.7" type="device">
  <diagram name="Halaman-1" id="mwou-1fB29aWSjInNtdQ">
    <mxGraphModel dx="3187" dy="1547" grid="1" gridSize="10" guides="1" tooltips="1" connect="1" arrows="1" fold="1" page="1" pageScale="1" pageWidth="827" pageHeight="1169" math="0" shadow="0">
      <root>
        <mxCell id="0" />
        <mxCell id="1" parent="0" />
        <mxCell id="3mIH-RPBNStbnvxZuAFj-1" value="Pasien&lt;div&gt;&lt;br/&gt;&lt;/div&gt;" style="shape=umlActor;verticalLabelPosition=bottom;verticalAlign=top;html=1;outlineConnect=0;" vertex="1" parent="1">
          <mxGeometry x="120" y="790" width="30" height="60" as="geometry" />
        </mxCell>
        <mxCell id="3mIH-RPBNStbnvxZuAFj-6" style="edgeStyle=orthogonalEdgeStyle;rounded=0;orthogonalLoop=1;jettySize=auto;html=1;exitX=0.5;exitY=0.5;exitDx=0;exitDy=0;exitPerimeter=0;" edge="1" parent="1" source="3mIH-RPBNStbnvxZuAFj-2" target="3mIH-RPBNStbnvxZuAFj-8">
          <mxGeometry relative="1" as="geometry">
            <mxPoint x="180" y="820.0816326530612" as="targetPoint" />
          </mxGeometry>
        </mxCell>
        <mxCell id="3mIH-RPBNStbnvxZuAFj-2" value="" style="shape=umlActor;verticalLabelPosition=bottom;verticalAlign=top;html=1;outlineConnect=0;" vertex="1" parent="1">
          <mxGeometry x="120" y="790" width="30" height="60" as="geometry" />
        </mxCell>
        <mxCell id="3mIH-RPBNStbnvxZuAFj-14" style="edgeStyle=orthogonalEdgeStyle;rounded=0;orthogonalLoop=1;jettySize=auto;html=1;exitX=0.5;exitY=0.5;exitDx=0;exitDy=0;exitPerimeter=0;" edge="1" parent="1" source="3mIH-RPBNStbnvxZuAFj-3" target="3mIH-RPBNStbnvxZuAFj-15">
          <mxGeometry relative="1" as="geometry">
            <mxPoint x="580" y="820.2857142857142" as="targetPoint" />
          </mxGeometry>
        </mxCell>
        <mxCell id="3mIH-RPBNStbnvxZuAFj-3" value="admin&lt;div&gt;&lt;br/&gt;&lt;/div&gt;" style="shape=umlActor;verticalLabelPosition=bottom;verticalAlign=top;html=1;outlineConnect=0;" vertex="1" parent="1">
          <mxGeometry x="630" y="790" width="30" height="60" as="geometry" />
        </mxCell>
        <mxCell id="3mIH-RPBNStbnvxZuAFj-8" value="Daftar&amp;nbsp;" style="ellipse;whiteSpace=wrap;html=1;" vertex="1" parent="1">
          <mxGeometry x="180" y="780" width="120" height="80" as="geometry" />
        </mxCell>
        <mxCell id="3mIH-RPBNStbnvxZuAFj-9" value="Notifikasi" style="ellipse;whiteSpace=wrap;html=1;" vertex="1" parent="1">
          <mxGeometry x="230" y="640" width="120" height="80" as="geometry" />
        </mxCell>
        <mxCell id="3mIH-RPBNStbnvxZuAFj-11" value="" style="endArrow=classic;html=1;rounded=0;exitX=0.5;exitY=0;exitDx=0;exitDy=0;" edge="1" parent="1" source="3mIH-RPBNStbnvxZuAFj-8">
          <mxGeometry width="50" height="50" relative="1" as="geometry">
            <mxPoint x="230" y="770" as="sourcePoint" />
            <mxPoint x="280" y="720" as="targetPoint" />
          </mxGeometry>
        </mxCell>
        <mxCell id="3mIH-RPBNStbnvxZuAFj-12" value="Informasi&amp;nbsp;" style="ellipse;whiteSpace=wrap;html=1;" vertex="1" parent="1">
          <mxGeometry x="350" y="690" width="120" height="80" as="geometry" />
        </mxCell>
        <mxCell id="3mIH-RPBNStbnvxZuAFj-13" value="" style="endArrow=classic;html=1;rounded=0;exitX=0.954;exitY=0.25;exitDx=0;exitDy=0;exitPerimeter=0;" edge="1" parent="1" source="3mIH-RPBNStbnvxZuAFj-8">
          <mxGeometry width="50" height="50" relative="1" as="geometry">
            <mxPoint x="304" y="800" as="sourcePoint" />
            <mxPoint x="354" y="750" as="targetPoint" />
          </mxGeometry>
        </mxCell>
        <mxCell id="3mIH-RPBNStbnvxZuAFj-15" value="CRUD Akun" style="ellipse;whiteSpace=wrap;html=1;" vertex="1" parent="1">
          <mxGeometry x="460" y="779.9957142857143" width="120" height="80" as="geometry" />
        </mxCell>
        <mxCell id="3mIH-RPBNStbnvxZuAFj-16" value="" style="endArrow=classic;html=1;rounded=0;" edge="1" parent="1" source="3mIH-RPBNStbnvxZuAFj-3" target="3mIH-RPBNStbnvxZuAFj-17">
          <mxGeometry width="50" height="50" relative="1" as="geometry">
            <mxPoint x="400" y="830" as="sourcePoint" />
            <mxPoint x="580" y="910" as="targetPoint" />
          </mxGeometry>
        </mxCell>
        <mxCell id="3mIH-RPBNStbnvxZuAFj-17" value="Cetak Laporan&amp;nbsp;" style="ellipse;whiteSpace=wrap;html=1;" vertex="1" parent="1">
          <mxGeometry x="470" y="880" width="120" height="80" as="geometry" />
        </mxCell>
      </root>
    </mxGraphModel>
  </diagram>
</mxfile>
